<svg viewBox="0 0 215 45" fill="none" xmlns="http://www.w3.org/2000/svg">
<path d="M0 6.03064H12.8026L21.2644 23.3938L28.8471 6.03064L41.8146 6.08557L41.7596 33.4491H34.0671L33.9572 11.6902L25.2206 33.4491L16.6489 33.3942L7.96729 12.0198L8.07719 33.3942H0.0549481L0 6.03064Z" fill="#ED2024"/>
<path d="M42.6026 36.5946H25.3493V0H16.7776V44.452H25.3493H42.6026V36.5946Z" fill="#272361"/>
<path d="M62.6468 24.4513H70.7239V29.3416H56.6026V4.45065H62.6468V24.4513Z" fill="#272361"/>
<path d="M86.219 3.90121C90.0652 3.90121 93.2522 5.27489 95.7797 8.02223C97.9776 10.4399 99.0765 13.3521 99.0765 16.8687C99.0765 19.0665 98.527 21.1545 97.3732 23.1876C96.1094 25.3854 94.406 27.0888 92.2082 28.2976C90.34 29.2867 88.3069 29.7812 86.0541 29.7812C83.6914 29.7812 81.4935 29.2317 79.5154 28.1328C77.2077 26.869 75.4494 25.1656 74.2405 22.9678C73.2515 21.0996 72.702 19.0665 72.702 16.9786C72.702 13.2422 74.0757 10.0553 76.878 7.41782C79.4055 5.11005 82.4826 3.90121 86.219 3.90121ZM85.9992 9.56074C83.8562 9.56074 82.0979 10.33 80.7243 11.9235C79.5704 13.2971 78.966 14.9455 78.966 16.9236C78.966 19.0665 79.6803 20.8248 81.1089 22.1985C82.4826 23.5722 84.131 24.2316 85.9992 24.2316C88.0322 24.2316 89.7905 23.4623 91.1642 21.9238C92.373 20.5501 92.9774 18.9567 92.9774 17.0335C92.9774 14.7258 92.2082 12.8026 90.6696 11.4289C89.3509 10.1652 87.8124 9.56074 85.9992 9.56074Z" fill="#272361"/>
<path d="M110.835 19.616L115.341 4.39572H121.55L114.077 29.2866H107.538L100.395 4.39572H106.604L110.835 19.616Z" fill="#272361"/>
<path d="M129.957 4.45065V29.3416H123.913V4.45065H129.957Z" fill="#272361"/>
<path d="M133.363 21.7589H139.298C139.298 21.9238 139.298 22.0886 139.298 22.1985C139.298 22.8029 139.572 23.3524 140.177 23.792C140.781 24.2315 141.441 24.4513 142.265 24.4513C142.979 24.4513 143.584 24.2865 144.078 23.9019C144.573 23.5172 144.792 23.0227 144.792 22.4732C144.792 21.8688 144.573 21.4292 144.078 21.0996C143.584 20.7699 142.649 20.3303 141.166 19.7808C138.803 18.9017 136.99 17.9676 135.726 16.8686C134.297 15.6049 133.583 13.9015 133.583 11.7036C133.583 9.28599 134.407 7.36285 136.056 5.98918C137.649 4.61551 139.737 3.95615 142.21 3.95615C144.628 3.95615 146.606 4.61551 148.199 5.87929C149.793 7.19801 150.782 9.1761 151.111 11.7586H144.957C144.792 10.1102 143.858 9.28599 142.21 9.28599C141.331 9.28599 140.671 9.50578 140.232 10.0003C139.902 10.3849 139.737 10.7696 139.737 11.2641C139.737 11.9784 140.122 12.5828 140.891 13.0773C141.276 13.2971 142.21 13.7367 143.748 14.2862C146.276 15.2203 148.089 16.1544 149.078 17.0885C150.452 18.3522 151.166 20.0556 151.166 22.0886C151.166 24.8359 150.122 26.869 147.979 28.2427C146.386 29.2866 144.463 29.8361 142.265 29.8361C139.682 29.8361 137.594 29.1767 136.001 27.858C134.188 26.3195 133.363 24.3414 133.363 21.7589Z" fill="#272361"/>
<path d="M171.826 22.0337L175.398 26.2646C174.079 27.3635 172.87 28.1877 171.771 28.6273C170.068 29.3966 168.145 29.7812 166.112 29.7812C162.32 29.7812 159.298 28.5174 156.99 25.9899C155.727 24.6162 154.848 22.9678 154.243 21.0446C153.804 19.671 153.639 18.2973 153.639 16.8687C153.639 14.3961 154.243 12.0883 155.397 9.94538C156.606 7.80245 158.254 6.15404 160.397 5.11005C162.101 4.28585 164.024 3.84628 166.277 3.84628C168.2 3.84628 169.903 4.12101 171.332 4.72543C172.76 5.32984 174.244 6.26394 175.672 7.63761L171.826 11.6487C170.123 10.1652 168.31 9.45086 166.496 9.45086C164.408 9.45086 162.76 10.1652 161.496 11.5938C160.342 12.9125 159.738 14.6159 159.738 16.7038C159.738 18.2424 160.122 19.671 160.837 20.8798C161.441 21.9238 162.265 22.693 163.309 23.2425C164.408 23.8469 165.562 24.1217 166.881 24.1217C167.925 24.1217 168.859 23.9568 169.683 23.6272C170.452 23.3524 171.167 22.803 171.826 22.0337Z" fill="#272361"/>
<path d="M183.42 9.34097V14.451H191.607V19.3413H183.42V24.5063H191.607V29.3966H177.376V4.50565H191.607V9.39591H183.42V9.34097Z" fill="#272361"/>
<path d="M201.662 18.4072V29.2866H195.618V4.39572H201.662V14.8906L207.487 4.39572H214.41L207.432 16.2093L214.41 29.2317H207.432L201.662 18.4072Z" fill="#272361"/>
<path d="M58.251 37.4738V42.3091H57.4818V35.9902H58.1961L61.5478 40.7706V35.9902H62.3171V42.3091H61.6577L58.251 37.4738Z" fill="#272361"/>
<path d="M67.9217 40.3859H64.2952C64.3501 40.7156 64.4051 40.9903 64.5699 41.2101C64.8447 41.5948 65.2293 41.8145 65.7238 41.8145C65.9985 41.8145 66.2733 41.7596 66.4931 41.5947C66.7128 41.4849 66.9326 41.2651 67.0425 41.0453L67.7019 41.2651C67.592 41.5398 67.3722 41.7596 67.1524 41.9794C66.7128 42.3091 66.2733 42.4739 65.7787 42.4739C65.0644 42.4739 64.515 42.1992 64.0754 41.7046C63.7457 41.32 63.5809 40.7706 63.5809 40.1661C63.5809 39.5068 63.8007 38.9573 64.1853 38.5177C64.6249 38.0782 65.1194 37.8584 65.7787 37.8584C66.548 37.8584 67.0975 38.1331 67.537 38.6826C67.8667 39.0672 67.9766 39.5617 67.9766 40.0562C67.9217 40.1661 67.9217 40.2211 67.9217 40.3859ZM67.1524 39.8365C67.0975 39.5068 67.0425 39.287 66.8777 39.0672C66.7678 38.9024 66.548 38.7375 66.3832 38.6276C66.1634 38.5177 65.9436 38.4628 65.7238 38.4628C65.3941 38.4628 65.0644 38.5727 64.8447 38.7925C64.5699 39.0123 64.4051 39.3419 64.2952 39.8365H67.1524Z" fill="#272361"/>
<path d="M72.2075 38.6826V37.9134H72.9218V42.3091C72.9218 42.8036 72.8668 43.1883 72.702 43.463C72.4822 43.7927 72.2075 44.0674 71.8228 44.2322C71.4932 44.3971 71.1635 44.452 70.7239 44.452C69.8997 44.452 69.2953 44.1773 68.8008 43.6278L69.2953 43.1333C69.4601 43.2981 69.57 43.463 69.7349 43.5179C70.0096 43.6828 70.3393 43.7927 70.7789 43.7927C71.2734 43.7927 71.658 43.6278 71.9327 43.3531C72.1525 43.1333 72.2624 42.7487 72.2624 42.3091V41.375C72.0976 41.6497 71.8778 41.8695 71.713 41.9794C71.3833 42.1992 71.0536 42.3091 70.669 42.3091C70.3393 42.3091 70.0096 42.1992 69.6799 42.0344C69.3502 41.8146 69.0755 41.5398 68.9107 41.2102C68.7458 40.8255 68.6359 40.4409 68.6359 40.0013C68.6359 39.5618 68.7458 39.1222 68.9656 38.7376C69.3502 38.0782 69.8997 37.6936 70.7239 37.6936C71.0536 37.6936 71.3283 37.7485 71.6031 37.9134C71.8778 38.0782 71.9877 38.4079 72.2075 38.6826ZM70.7789 38.5178C70.3393 38.5178 69.9547 38.6826 69.6799 39.0123C69.4601 39.287 69.3502 39.6717 69.3502 40.1112C69.3502 40.6607 69.5151 41.1003 69.8448 41.375C70.1195 41.5948 70.3942 41.7596 70.7789 41.7596C71.2184 41.7596 71.6031 41.5948 71.8778 41.2102C72.0976 40.9904 72.2075 40.6058 72.2075 40.1112C72.2075 39.6167 72.0976 39.2321 71.8778 38.9573C71.6031 38.6826 71.2184 38.5178 70.7789 38.5178Z" fill="#272361"/>
<path d="M76.2736 37.8584C76.9879 37.8584 77.5373 38.1331 77.9769 38.6276C78.3066 39.0122 78.4715 39.5617 78.4715 40.1661C78.4715 40.8255 78.2517 41.375 77.7571 41.8145C77.3176 42.1992 76.823 42.419 76.2186 42.419C75.7791 42.419 75.3944 42.3091 75.0098 42.0893C74.3504 41.6497 74.0208 41.0453 74.0208 40.1112C74.0208 39.3969 74.2405 38.7925 74.6801 38.4078C75.1197 38.0232 75.6692 37.8584 76.2736 37.8584ZM76.2736 38.5177C75.7791 38.5177 75.3944 38.6826 75.1197 39.0123C74.8999 39.287 74.7351 39.6716 74.7351 40.1112C74.7351 40.6057 74.8999 40.9903 75.1746 41.2651C75.4494 41.5398 75.834 41.7046 76.2186 41.7046C76.7131 41.7046 77.0978 41.5398 77.3725 41.1552C77.5923 40.8804 77.7022 40.4958 77.7022 40.1112C77.7022 39.6167 77.5373 39.1771 77.2626 38.9024C76.9879 38.6276 76.6582 38.5177 76.2736 38.5177Z" fill="#272361"/>
<path d="M82.5375 41.2651L82.9771 41.7596C82.7573 41.9794 82.5375 42.0893 82.3727 42.1992C82.043 42.364 81.7133 42.419 81.3836 42.419C80.7792 42.419 80.2298 42.1992 79.8451 41.7596C79.4605 41.32 79.2407 40.8255 79.2407 40.1661C79.2407 39.7266 79.3506 39.287 79.5704 38.9024C79.7902 38.5177 80.0649 38.243 80.4496 38.0782C80.7243 37.9683 81.054 37.8584 81.3836 37.8584C81.9881 37.8584 82.5375 38.0782 82.9771 38.5177L82.5375 38.9573C82.2079 38.6276 81.8232 38.5177 81.4386 38.5177C80.999 38.5177 80.6144 38.6826 80.3397 39.0123C80.1199 39.287 80.01 39.6716 80.01 40.1112C80.01 40.6607 80.1748 41.1002 80.5045 41.375C80.7792 41.5948 81.1089 41.7596 81.4935 41.7596C81.8232 41.7596 82.2079 41.5948 82.5375 41.2651Z" fill="#272361"/>
<path d="M84.2409 36.2649C84.3507 36.2649 84.4606 36.3199 84.5705 36.3748C84.6804 36.4847 84.6804 36.5946 84.6804 36.7045C84.6804 36.8144 84.6255 36.9243 84.5705 37.0342C84.4606 37.1441 84.3507 37.1441 84.2409 37.1441C84.131 37.1441 84.0211 37.0891 83.9112 37.0342C83.8013 36.9243 83.8013 36.8144 83.8013 36.7045C83.8013 36.5946 83.8562 36.4847 83.9112 36.3748C83.9661 36.2649 84.131 36.2649 84.2409 36.2649ZM84.6255 37.9683V42.3091H83.9112V37.9683H84.6255Z" fill="#272361"/>
<path d="M87.9223 37.8584C88.6366 37.8584 89.1861 38.1331 89.6257 38.6276C89.9553 39.0122 90.1202 39.5617 90.1202 40.1661C90.1202 40.8255 89.9004 41.375 89.4059 41.8145C88.9663 42.1992 88.4718 42.419 87.8674 42.419C87.4278 42.419 87.0432 42.3091 86.6585 42.0893C85.9992 41.6497 85.6695 41.0453 85.6695 40.1112C85.6695 39.3969 85.8893 38.7925 86.3288 38.4078C86.8234 38.0232 87.3179 37.8584 87.9223 37.8584ZM87.9223 38.5177C87.4278 38.5177 87.0432 38.6826 86.7684 39.0123C86.5486 39.287 86.3838 39.6716 86.3838 40.1112C86.3838 40.6057 86.5486 40.9903 86.8234 41.2651C87.0981 41.5398 87.4827 41.7046 87.8674 41.7046C88.3619 41.7046 88.7465 41.5398 89.0212 41.1552C89.241 40.8804 89.3509 40.4958 89.3509 40.1112C89.3509 39.6167 89.1861 39.1771 88.9114 38.9024C88.6916 38.6276 88.3619 38.5177 87.9223 38.5177Z" fill="#272361"/>
<path d="M93.9665 39.1222H93.2522C93.2522 38.9573 93.2522 38.8474 93.1972 38.7925C93.0324 38.5727 92.8126 38.4079 92.428 38.4079C92.2082 38.4079 91.9884 38.4628 91.8235 38.5727C91.6587 38.6826 91.6038 38.8474 91.6038 39.0123C91.6038 39.1771 91.6587 39.3419 91.8235 39.4518C91.9334 39.5617 92.2082 39.6716 92.5928 39.7815C93.0873 39.9464 93.472 40.1112 93.6368 40.276C93.8566 40.4958 93.9665 40.7706 93.9665 41.1552C93.9665 41.5948 93.8016 41.9244 93.417 42.1442C93.1423 42.3091 92.8126 42.419 92.373 42.419C91.8785 42.419 91.4939 42.3091 91.2191 42.0893C90.9444 41.8695 90.7796 41.5398 90.7246 41.1002H91.4389C91.4389 41.32 91.4939 41.4299 91.6038 41.5398C91.7686 41.7596 92.0433 41.8146 92.373 41.8146C92.5928 41.8146 92.8126 41.7596 92.9774 41.6497C93.1423 41.5398 93.1972 41.375 93.1972 41.1552C93.1972 40.9904 93.1423 40.8255 92.9774 40.7156C92.8126 40.6057 92.5928 40.4958 92.2082 40.3859C91.7686 40.2761 91.384 40.1112 91.1642 39.8914C90.9444 39.6716 90.7796 39.3969 90.7796 39.0672C90.7796 38.6276 90.9444 38.298 91.329 38.0782C91.6038 37.9133 91.9334 37.8034 92.3181 37.8034C92.8675 37.8034 93.3071 37.9683 93.5819 38.298C93.8566 38.5727 93.9665 38.8474 93.9665 39.1222Z" fill="#272361"/>
<path d="M98.8567 35.9902V42.3091H98.0875V35.9902H98.8567Z" fill="#272361"/>
<path d="M100.34 37.9683H101.055V38.5727C101.219 38.2979 101.439 38.1331 101.659 38.0232C101.879 37.9133 102.099 37.8584 102.373 37.8584C102.758 37.8584 103.143 37.9683 103.362 38.243C103.527 38.4078 103.637 38.5727 103.692 38.7925C103.747 38.9573 103.747 39.1771 103.747 39.3969V42.364H103.033V39.5617C103.033 39.1771 102.978 38.9573 102.868 38.7925C102.703 38.5727 102.483 38.5177 102.208 38.5177C101.879 38.5177 101.604 38.6276 101.384 38.9024C101.219 39.1221 101.11 39.3969 101.11 39.6716V42.3091H100.395V37.9683H100.34Z" fill="#272361"/>
<path d="M105.176 37.9683H105.89V38.5727C106.055 38.2979 106.22 38.1331 106.439 38.0232C106.659 37.9133 106.879 37.8584 107.154 37.8584C107.428 37.8584 107.703 37.9133 107.868 38.0782C108.033 38.243 108.198 38.4078 108.308 38.6826C108.472 38.4078 108.637 38.243 108.802 38.1331C109.022 37.9683 109.352 37.9133 109.681 37.9133C110.176 37.9133 110.56 38.0782 110.78 38.3529C110.89 38.5177 110.945 38.6276 111 38.7925C111.055 38.9573 111.055 39.232 111.055 39.5617V42.364H110.341V39.7266C110.341 39.4518 110.341 39.287 110.341 39.1771C110.341 39.0672 110.286 38.9573 110.231 38.9024C110.066 38.6826 109.846 38.5177 109.461 38.5177C109.132 38.5177 108.912 38.6276 108.747 38.8474C108.582 39.0672 108.472 39.3419 108.472 39.7266V42.364H107.758V39.7266C107.758 39.3419 107.703 39.0672 107.593 38.9024C107.483 38.6276 107.209 38.5177 106.879 38.5177C106.549 38.5177 106.33 38.6276 106.165 38.8474C106 39.0672 105.89 39.3419 105.89 39.7266V42.364H105.176V37.9683Z" fill="#272361"/>
<path d="M114.352 37.8584C115.066 37.8584 115.616 38.1331 116.055 38.6276C116.385 39.0122 116.55 39.5617 116.55 40.1661C116.55 40.8255 116.33 41.375 115.835 41.8145C115.396 42.1992 114.901 42.419 114.297 42.419C113.857 42.419 113.473 42.3091 113.088 42.0893C112.429 41.6497 112.099 41.0453 112.099 40.1112C112.099 39.3969 112.319 38.7925 112.758 38.4078C113.253 38.0232 113.747 37.8584 114.352 37.8584ZM114.352 38.5177C113.857 38.5177 113.473 38.6826 113.198 39.0123C112.978 39.287 112.813 39.6716 112.813 40.1112C112.813 40.6057 112.978 40.9903 113.253 41.2651C113.528 41.5398 113.912 41.7046 114.297 41.7046C114.791 41.7046 115.176 41.5398 115.451 41.1552C115.67 40.8804 115.78 40.4958 115.78 40.1112C115.78 39.6167 115.616 39.1771 115.341 38.9024C115.121 38.6276 114.791 38.5177 114.352 38.5177Z" fill="#272361"/>
<path d="M118.418 41.5948V42.364H117.703V36.0451H118.418V38.7375C118.583 38.4628 118.802 38.298 119.022 38.1331C119.297 37.9683 119.627 37.8584 119.956 37.8584C120.616 37.8584 121.165 38.1331 121.55 38.6276C121.879 39.0672 122.044 39.5617 122.044 40.1661C122.044 40.8805 121.825 41.4299 121.385 41.8695C121 42.2541 120.506 42.419 119.956 42.419C119.627 42.419 119.352 42.364 119.077 42.1992C118.857 42.0893 118.638 41.8695 118.418 41.5948ZM119.846 38.5177C119.407 38.5177 119.022 38.6826 118.747 39.0123C118.528 39.287 118.363 39.6716 118.363 40.1661C118.363 40.6607 118.528 41.1002 118.802 41.375C119.077 41.6497 119.407 41.8146 119.791 41.8146C120.286 41.8146 120.616 41.6497 120.89 41.32C121.11 41.0453 121.22 40.6607 121.22 40.2211C121.22 39.7266 121.11 39.3419 120.835 39.0123C120.616 38.6276 120.286 38.5177 119.846 38.5177Z" fill="#272361"/>
<path d="M123.473 36.2649C123.583 36.2649 123.693 36.3199 123.803 36.3748C123.913 36.4298 123.912 36.5946 123.912 36.7045C123.912 36.8144 123.858 36.9243 123.803 37.0342C123.693 37.1441 123.583 37.1441 123.473 37.1441C123.363 37.1441 123.253 37.0891 123.143 37.0342C123.033 36.9792 123.033 36.8144 123.033 36.7045C123.033 36.5946 123.088 36.4847 123.143 36.3748C123.253 36.3199 123.363 36.2649 123.473 36.2649ZM123.803 37.9683V42.3091H123.088V37.9683H123.803Z" fill="#272361"/>
<path d="M126 42.3091H125.286V35.9902H126V42.3091Z" fill="#272361"/>
<path d="M127.814 36.2649C127.924 36.2649 128.034 36.3199 128.143 36.3748C128.253 36.4298 128.253 36.5946 128.253 36.7045C128.253 36.8144 128.198 36.9243 128.143 37.0342C128.034 37.1441 127.924 37.1441 127.814 37.1441C127.704 37.1441 127.594 37.0891 127.484 37.0342C127.374 36.9792 127.374 36.8144 127.374 36.7045C127.374 36.5946 127.429 36.4847 127.484 36.3748C127.594 36.3199 127.704 36.2649 127.814 36.2649ZM128.143 37.9683V42.3091H127.429V37.9683H128.143Z" fill="#272361"/>
<path d="M132.924 38.6826V37.9683H133.638V42.3091H132.924V41.4849C132.484 42.0893 131.99 42.419 131.33 42.419C130.726 42.419 130.231 42.1992 129.792 41.7596C129.462 41.375 129.242 40.8255 129.242 40.1662C129.242 39.7266 129.352 39.287 129.517 38.9024C129.682 38.5727 129.957 38.298 130.286 38.0782C130.616 37.9133 130.946 37.8034 131.275 37.8034C131.605 37.8034 131.88 37.8584 132.155 38.0232C132.484 38.1881 132.704 38.4079 132.924 38.6826ZM131.44 38.5178C131.001 38.5178 130.616 38.6826 130.396 39.0123C130.176 39.342 130.067 39.7266 130.067 40.1662C130.067 40.6607 130.231 41.1002 130.561 41.375C130.836 41.6497 131.111 41.7596 131.495 41.7596C131.935 41.7596 132.319 41.5948 132.594 41.2101C132.869 40.8805 132.979 40.4958 132.979 40.0563C132.979 39.5617 132.869 39.1771 132.594 38.9024C132.209 38.6276 131.88 38.5178 131.44 38.5178Z" fill="#272361"/>
<path d="M135.067 37.9683H135.781V38.6826C135.891 38.4079 136.001 38.243 136.166 38.0782C136.385 37.9133 136.66 37.8034 136.99 37.8034C137.045 37.8034 137.1 37.8034 137.155 37.8034V38.5178C137.045 38.5178 136.99 38.5178 136.935 38.5178C136.55 38.5178 136.221 38.6826 136.001 39.0123C135.891 39.1222 135.836 39.287 135.781 39.4518C135.726 39.6167 135.726 39.7815 135.726 40.0563V42.2541H135.012V37.9683H135.067Z" fill="#272361"/>
<path d="M138.473 36.2649C138.583 36.2649 138.693 36.3199 138.803 36.3748C138.913 36.4298 138.913 36.5946 138.913 36.7045C138.913 36.8144 138.858 36.9243 138.803 37.0342C138.693 37.1441 138.583 37.1441 138.473 37.1441C138.364 37.1441 138.254 37.0891 138.144 37.0342C138.034 36.9792 138.034 36.8144 138.034 36.7045C138.034 36.5946 138.089 36.4847 138.144 36.3748C138.199 36.3199 138.309 36.2649 138.473 36.2649ZM138.803 37.9683V42.3091H138.089V37.9683H138.803Z" fill="#272361"/>
<path d="M142.155 37.8584C142.869 37.8584 143.419 38.1331 143.858 38.6276C144.188 39.0122 144.353 39.5617 144.353 40.1661C144.353 40.8255 144.133 41.375 143.638 41.8145C143.199 42.1992 142.704 42.419 142.1 42.419C141.66 42.419 141.276 42.3091 140.891 42.0893C140.232 41.6497 139.902 41.0453 139.902 40.1112C139.902 39.3969 140.122 38.7925 140.561 38.4078C141.001 38.0232 141.496 37.8584 142.155 37.8584ZM142.155 38.5177C141.66 38.5177 141.276 38.6826 141.001 39.0123C140.781 39.287 140.616 39.6716 140.616 40.1112C140.616 40.6057 140.781 40.9903 141.056 41.2651C141.331 41.5398 141.715 41.7046 142.1 41.7046C142.594 41.7046 142.979 41.5398 143.254 41.1552C143.474 40.8804 143.583 40.4958 143.583 40.1112C143.583 39.6167 143.419 39.1771 143.144 38.9024C142.869 38.6276 142.539 38.5177 142.155 38.5177Z" fill="#272361"/>
<path d="M148.199 39.1222H147.485C147.485 38.9573 147.485 38.8474 147.43 38.7925C147.265 38.5727 147.045 38.4079 146.661 38.4079C146.441 38.4079 146.221 38.4628 146.056 38.5727C145.891 38.6826 145.836 38.8474 145.836 39.0123C145.836 39.1771 145.891 39.3419 146.056 39.4518C146.166 39.5617 146.441 39.6716 146.825 39.7815C147.32 39.9464 147.704 40.1112 147.869 40.276C148.089 40.4958 148.199 40.7706 148.199 41.1552C148.199 41.5948 148.034 41.9244 147.65 42.1442C147.375 42.3091 147.045 42.419 146.606 42.419C146.111 42.419 145.726 42.3091 145.452 42.0893C145.177 41.8695 145.012 41.5398 144.957 41.1002H145.671C145.671 41.32 145.726 41.4299 145.836 41.5398C146.001 41.7596 146.276 41.8146 146.606 41.8146C146.825 41.8146 147.045 41.7596 147.21 41.6497C147.375 41.5398 147.43 41.375 147.43 41.1552C147.43 40.9904 147.375 40.8255 147.21 40.7156C147.045 40.6057 146.825 40.4958 146.441 40.3859C146.001 40.2761 145.617 40.1112 145.397 39.8914C145.177 39.6716 145.012 39.3969 145.012 39.0672C145.012 38.6276 145.177 38.298 145.562 38.0782C145.836 37.9133 146.166 37.8034 146.551 37.8034C147.1 37.8034 147.54 37.9683 147.814 38.298C148.089 38.5727 148.144 38.8474 148.199 39.1222Z" fill="#272361"/>
</svg>
